<svg width="30" height="30" viewBox="0 0 30 30" fill="none" xmlns="http://www.w3.org/2000/svg">
<circle cx="15" cy="15" r="15" fill="#F8BF1E"/>
<path d="M17.6605 15.1896L10.4189 16.396C10.3357 16.4099 10.2576 16.4455 10.1924 16.4992C10.1273 16.5528 10.0774 16.6227 10.0478 16.7017L7.55097 23.3903C7.31253 24.0056 7.95573 24.592 8.54606 24.2959L25.852 15.6443C25.9716 15.5844 26.0722 15.4924 26.1425 15.3785C26.2128 15.2647 26.25 15.1336 26.25 14.9998C26.25 14.866 26.2128 14.7349 26.1425 14.621C26.0722 14.5072 25.9716 14.4152 25.852 14.3552L8.54606 5.70369C7.95573 5.40857 7.31253 5.99496 7.55097 6.60922L10.0488 13.2978C10.0784 13.3769 10.1282 13.4467 10.1934 13.5004C10.2585 13.5541 10.3367 13.5896 10.4199 13.6035L17.6615 14.8099C17.7067 14.8171 17.7478 14.8402 17.7775 14.875C17.8072 14.9098 17.8235 14.954 17.8235 14.9998C17.8235 15.0455 17.8072 15.0898 17.7775 15.1246C17.7478 15.1594 17.7067 15.1824 17.6615 15.1896H17.6605Z" fill="#262626"/>
</svg>
