<svg width="24" height="18" viewBox="0 0 24 18" fill="#FFFFFF" xmlns="http://www.w3.org/2000/svg"><path d="M23.4986 3.22321C23.2226 2.19056 22.4094 1.37742 21.3768 1.10142C19.505 0.599853 12 0.599854 12 0.599854C12 0.599854 4.49498 0.599853 2.62317 1.10142C1.5907 1.37742 0.777375 2.19056 0.501422 3.22321C0 5.09484 0 8.99999 0 8.99999C0 8.99999 0 12.9051 0.501422 14.7765C0.777375 15.8092 1.5907 16.6225 2.62317 16.8985C4.49498 17.3999 12 17.3999 12 17.3999C12 17.3999 19.505 17.3999 21.3768 16.8985C22.4094 16.6225 23.2226 15.8092 23.4986 14.7765C24 12.9051 24 8.99999 24 8.99999C24 8.99999 24 5.09484 23.4986 3.22321ZM9.59986 12.6V5.3999L15.8351 8.99999L9.59986 12.6Z" fill="#FFFFFF"></path></svg>