<svg width="24" height="24" viewBox="0 0 24 24" fill="#FFFFFF" xmlns="http://www.w3.org/2000/svg"><path d="M15.6837 4.55102C16.8149 4.55102 17.8998 5.0004 18.6997 5.8003C19.4996 6.6002 19.949 7.6851 19.949 8.81633V16.1837C19.949 17.3149 19.4996 18.3998 18.6997 19.1997C17.8998 19.9996 16.8149 20.449 15.6837 20.449H8.31633C7.1851 20.449 6.1002 19.9996 5.3003 19.1997C4.5004 18.3998 4.05102 17.3149 4.05102 16.1837V8.81633C4.05102 7.6851 4.5004 6.6002 5.3003 5.8003C6.1002 5.0004 7.1851 4.55102 8.31633 4.55102H15.6837ZM15.6837 3H8.31633C6.77516 3.0046 5.29842 3.61887 4.20865 4.70865C3.11887 5.79842 2.5046 7.27516 2.5 8.81633V16.1837C2.5046 17.7248 3.11887 19.2016 4.20865 20.2914C5.29842 21.3811 6.77516 21.9954 8.31633 22H15.6837C17.2248 21.9954 18.7016 21.3811 19.7914 20.2914C20.8811 19.2016 21.4954 17.7248 21.5 16.1837V8.81633C21.4954 7.27516 20.8811 5.79842 19.7914 4.70865C18.7016 3.61887 17.2248 3.0046 15.6837 3Z" fill="#FFFFFF"></path><path d="M17.0294 6.35294C16.8083 6.35294 16.5923 6.41848 16.4085 6.54129C16.2247 6.6641 16.0814 6.83865 15.9968 7.04288C15.9122 7.2471 15.8901 7.47182 15.9332 7.68862C15.9763 7.90543 16.0828 8.10457 16.2391 8.26088C16.3954 8.41718 16.5945 8.52363 16.8113 8.56675C17.0282 8.60988 17.2529 8.58775 17.4571 8.50315C17.6613 8.41856 17.8359 8.27531 17.9587 8.09151C18.0815 7.90772 18.147 7.69163 18.147 7.47058C18.147 7.32381 18.1181 7.17848 18.062 7.04288C18.0058 6.90728 17.9235 6.78407 17.8197 6.68029C17.7159 6.5765 17.5927 6.49418 17.4571 6.43801C17.3215 6.38184 17.1762 6.35294 17.0294 6.35294Z" fill="#FFFFFF"></path><path d="M11.9902 9.03738C12.6752 9.037 13.3449 9.2398 13.9147 9.62012C14.4844 10.0005 14.9285 10.5412 15.1908 11.174C15.4531 11.8068 15.5219 12.5032 15.3883 13.175C15.2548 13.8469 14.925 14.4641 14.4406 14.9484C13.9562 15.4328 13.3391 15.7626 12.6672 15.8962C11.9953 16.0297 11.299 15.961 10.6662 15.6987C10.0334 15.4363 9.49261 14.9922 9.11228 14.4225C8.73196 13.8528 8.52916 13.183 8.52954 12.498C8.5311 11.5807 8.8962 10.7014 9.54486 10.0527C10.1935 9.40404 11.0729 9.03894 11.9902 9.03738ZM11.9902 7.47059C10.9958 7.47253 10.0243 7.76919 9.19848 8.32309C8.37264 8.87699 7.72954 9.66327 7.35043 10.5826C6.97133 11.5018 6.87324 12.5129 7.06856 13.4879C7.26389 14.4629 7.74386 15.3582 8.44782 16.0605C9.15178 16.7628 10.0481 17.2407 11.0236 17.4337C11.9991 17.6268 13.0099 17.5263 13.9283 17.1451C14.8467 16.7638 15.6315 16.1189 16.1834 15.2917C16.7354 14.4646 17.0298 13.4924 17.0294 12.498C17.0291 11.8369 16.8985 11.1823 16.6451 10.5717C16.3916 9.9611 16.0202 9.40646 15.5522 8.93951C15.0841 8.47257 14.5286 8.10248 13.9174 7.85043C13.3062 7.59838 12.6513 7.4693 11.9902 7.47059Z" fill="#FFFFFF"></path></svg>