<svg version="1.1" id="Layer_1" xmlns="http://www.w3.org/2000/svg" xmlns:xlink="http://www.w3.org/1999/xlink" x="0px" y="0px" viewBox="0 0 884.4 289.9" style="enable-background:new 0 0 884.4 289.9;" xml:space="preserve">
<style type="text/css">
	.st0{fill:#FFFFFF;}
	.st1{fill:#F8BF1E;}
	.st2{enable-background:new    ;}
</style>
<path class="st0" d="M247.8,118.3c-16.3,0-26.4-14.6-26.4-34.8s8.5-34.9,26.3-34.9c11.7,0,19.4,7.5,20.7,17.4h27.2
	c-1.4-12.3-6.9-23.1-16.5-30.3c-7.9-6-18.6-9.7-31.4-9.7c-32.8,0-54.1,24.8-54.1,57.5c0,32.9,22,57.1,54.3,57.1
	c15.5,0,26.8-4.3,35.2-12.5c7.7-7.4,12.5-17.4,13.2-28.1h-27.2C267.9,110.6,260,118.3,247.8,118.3z"></path>
<path class="st0" d="M346.6,57.2c-25.2,0-42.1,18-42.1,41.7s16.9,41.7,42.1,41.7c25.4,0,42-18,42-41.7S371.9,57.2,346.6,57.2z
	 M346.4,122.7c-10.9,0-16.6-9.5-16.6-23.8s5.7-24,16.6-24s16.8,9.7,16.8,24S357.4,122.7,346.4,122.7L346.4,122.7z"></path>
<circle class="st0" cx="414.5" cy="39.2" r="13.7"></circle>
<polygon class="st0" points="392.7,77.1 403.1,77.1 403.1,138.1 428.2,138.1 428.2,59.4 392.7,59.4"></polygon>
<path class="st0" d="M489.7,57.1c-10.9,0-18.5,4.6-24.3,13.1h-0.5V59.4h-24.1v78.7h25.1V94.6c0-9.7,5.5-16.6,13.8-16.6
	S492,83.7,492,92v46.1H517V86.9C517,69.4,506.9,57.1,489.7,57.1z"></path>
<path class="st0" d="M575.8,28.2h-46.9v110h45.2c13.8,0,24.9-3.5,33.5-10c12.3-9.4,19.1-24.9,19.1-44.3
	C626.7,50.2,606.3,28.2,575.8,28.2z M572.1,115.2h-16V50.9h16.3c17.1,0,26.8,12.9,26.8,32.9S590,115.2,572.1,115.2L572.1,115.2z"></path>
<path class="st0" d="M701,67.4c-6.8-6.2-15.7-9.8-26.9-9.8c-24,0-40.4,18-40.4,41.5c0,23.8,16,41.8,42,41.8c10,0,18-2.6,24.6-7.2
	c6.5-4.4,11.2-11,13.2-18.6H689c-2.2,4.9-6.5,7.8-13.1,7.8c-10.3,0-16.2-6.6-17.7-17.2h56.6C715,89.7,710.4,76,701,67.4z
	 M658.4,90.8c1.7-9.4,6.6-15.4,16.1-15.4c8.2,0,14,6,14.9,15.4H658.4z"></path>
<path class="st0" d="M764.4,88.9c-10-1.9-18.9-2.6-18.9-8.2c0-4.9,4.8-7.2,10.9-7.2c6.9,0,11.7,2.2,12.6,9.2h23.1
	c-1.2-15.5-13.2-25.2-35.5-25.2c-18.6,0-34,8.6-34,25.2c0,18.4,14.6,22.1,28.3,24.4c10.5,1.8,20,2.6,20,9.7c0,5.1-4.8,7.8-12.3,7.8
	c-8.3,0-13.5-3.8-14.5-11.7h-23.7c0.8,17.4,15.2,28,38.3,28c20.6,0,35.8-8.9,35.8-26.1C794.5,94.7,778.2,91.2,764.4,88.9z"></path>
<polygon class="st0" points="853.5,88.9 881.2,59.4 852.3,59.4 828.9,86 828.9,28.2 804.1,28.2 804.1,138.1 828.9,138.1 828.9,114 
	836.4,106 855.3,138.1 884.4,138.1"></polygon>
<circle class="st1" cx="83.5" cy="83.1" r="7.6"></circle>
<circle class="st1" cx="144.1" cy="83.1" r="7.6"></circle>
<circle class="st1" cx="144.1" cy="143.8" r="7.6"></circle>
<path class="st1" d="M166.4,21c-0.9-12.5-11.8-21.9-24.2-21c-5.5,0.4-10.7,2.8-14.6,6.8c-3.4,3.5-8,5.5-12.9,5.6h-1.8
	c-5,0-9.8-2.1-13.2-5.7c-8.8-8.9-23.1-9-32-0.2l-0.2,0.2c-3.5,3.6-8.2,5.6-13.2,5.7h-1.8c-4.9,0.1-9.6-1.9-13-5.4
	c-0.7-0.7-1.4-1.4-2.2-2C27.4-2.7,13.1-1.1,5.4,8.8C-1.7,17.7-1,30.6,7,38.7L7.3,39c3.5,3.4,5.5,8.2,5.5,13.1v1.7
	c0,5-2.1,9.8-5.7,13.2c-8.9,8.8-9,23.1-0.2,32l0.2,0.2c3.6,3.5,5.6,8.2,5.7,13.2v2.2c0,4.9-2.1,9.5-5.6,12.9
	c-9.1,8.6-9.5,22.9-0.9,32c8.5,9,22.7,9.5,31.8,1.1c0.4-0.4,0.9-0.8,1.3-1.3c3.3-3.6,8-5.6,12.9-5.7h2c4.9,0.1,9.5,2.1,12.9,5.7
	c8.7,9,23,9.4,32,0.7c9-8.7,9.4-23,0.7-32s-23-9.4-32-0.7c0,0,0,0,0,0l-0.3,0.3c-3.5,3.5-8.2,5.5-13.1,5.5h-2.1
	c-4.9,0-9.7-1.9-13.2-5.5c0-0.1-0.1-0.1-0.2-0.2c-3.6-3.5-5.6-8.2-5.7-13.2v-2c0.1-5,2.1-9.8,5.7-13.2c8.9-8.8,8.9-23.1,0.2-32
	L39,67c-3.6-3.5-5.6-8.2-5.7-13.2V52c0-5,2.1-9.7,5.6-13.2l0.2-0.2l0.2-0.2C42.7,35,47.4,33,52.4,33h1.8c5,0,9.8,2.1,13.2,5.7
	c8.8,8.9,23.1,9,32,0.2l0.2-0.2c3.5-3.6,8.2-5.6,13.2-5.7h1.6c5,0.1,9.8,2.1,13.2,5.7c8.8,8.9,23.1,9.1,32,0.3
	C164.4,34.3,166.9,27.7,166.4,21z"></path>
<g class="st2">
	<path class="st1" d="M487,169.9h21.7v87.7H487V169.9z"></path>
	<path class="st1" d="M519.5,194.8h19.3v8.6h0.4c4.7-6.7,10.7-10.4,19.4-10.4c13.7,0,21.8,9.8,21.8,23.8v40.9h-20v-36.8
		c0-6.6-3.3-11.2-9.8-11.2c-6.6,0-11,5.5-11,13.2v34.7h-20V194.8z"></path>
	<path class="st1" d="M586.6,226.2c0-19.6,11.3-33.2,27.5-33.2c8.8,0,13.9,3.7,17.5,9h0.4v-32h20v87.7h-19.1v-8.5h-0.2
		c-3.8,6.5-10.3,10.4-18.5,10.4C598.1,259.6,586.6,247.2,586.6,226.2z M632.5,226.2c0-10.6-4.3-18.2-13-18.2
		c-8,0-12.6,7.4-12.6,17.9c0,10.9,4.7,17.8,12.4,17.8C627.6,243.7,632.5,236.5,632.5,226.2z"></path>
	<path class="st1" d="M661.6,169.9h20v16.2h-20V169.9z M661.6,194.8h20v62.8h-20V194.8z"></path>
	<path class="st1" d="M688.4,226.3c0-18.9,13-33.2,32.9-33.2c17.1,0,28,9.9,29.8,24h-19.3c-1.2-5.6-4.7-9.3-10.3-9.3
		c-8.6,0-12.9,7.1-12.9,18.5c0,11.2,4.3,18.3,12.9,18.3c6.3,0,10.1-3.7,10.9-10.8h19.1c-0.5,14.5-12,25.8-29.8,25.8
		C701.5,259.6,688.4,245.2,688.4,226.3z"></path>
	<path class="st1" d="M755.1,226.1c0-18.8,13.1-33.1,32.3-33.1c9,0,16.1,2.9,21.5,7.9c7.5,6.9,11.2,17.8,11,30.6h-45.2
		c1.2,8.5,5.9,13.7,14.1,13.7c5.3,0,8.7-2.3,10.4-6.3h19.5c-1.3,5.6-5,11-10.6,14.8c-5.3,3.7-11.7,5.8-19.6,5.8
		C767.9,259.5,755.1,245.1,755.1,226.1z M799.6,219.5c-0.7-7.5-5.4-12.3-11.9-12.3c-7.6,0-11.5,4.8-12.9,12.3H799.6z"></path>
	<path class="st1" d="M822.8,237.2h18.9c0.7,6.3,4.9,9.3,11.5,9.3c6,0,9.8-2.2,9.8-6.3c0-5.6-7.6-6.3-16-7.7
		c-10.9-1.8-22.6-4.8-22.6-19.5c0-13.2,12.3-20.1,27.1-20.1c17.8,0,27.4,7.7,28.3,20.1h-18.4c-0.7-5.6-4.5-7.4-10.1-7.4
		c-4.9,0-8.7,1.8-8.7,5.8c0,4.4,7.1,5,15.1,6.5c11,1.8,24,4.7,24,20.7c0,13.7-12.1,20.9-28.6,20.9
		C835,259.6,823.4,251.1,822.8,237.2z"></path>
</g>
</svg>
