<svg width="20" height="15" viewBox="0 0 20 15" fill="none" xmlns="http://www.w3.org/2000/svg"><path fill="#FFFFFF" d="M16.9308 1.33577C15.6561 0.769483 14.2892 0.352265 12.8599 0.113307C12.8339 0.108695 12.8079 0.12022 12.7945 0.143271C12.6187 0.446002 12.4239 0.840938 12.2876 1.15136C10.7503 0.928538 9.22099 0.928538 7.71527 1.15136C7.57887 0.834038 7.37707 0.446002 7.20048 0.143271C7.18707 0.12099 7.16107 0.109464 7.13504 0.113307C5.70659 0.351502 4.33963 0.76872 3.06411 1.33577C3.05307 1.34038 3.04361 1.34807 3.03732 1.35806C0.444493 5.10844 -0.265792 8.76664 0.0826501 12.3795C0.0842267 12.3972 0.0944749 12.4141 0.108665 12.4248C1.81934 13.6411 3.47642 14.3795 5.10273 14.869C5.12876 14.8767 5.15634 14.8674 5.1729 14.8467C5.55761 14.338 5.90054 13.8017 6.19456 13.2377C6.21192 13.2047 6.19535 13.1655 6.15989 13.1524C5.61594 12.9527 5.098 12.7091 4.59977 12.4325C4.56037 12.4102 4.55721 12.3556 4.59347 12.3295C4.69831 12.2535 4.80318 12.1743 4.9033 12.0944C4.92141 12.0798 4.94665 12.0767 4.96794 12.0859C8.24107 13.5328 11.7846 13.5328 15.0191 12.0859C15.0404 12.076 15.0657 12.079 15.0846 12.0936C15.1847 12.1735 15.2895 12.2535 15.3952 12.3295C15.4314 12.3556 15.4291 12.4102 15.3897 12.4325C14.8914 12.7145 14.3735 12.9527 13.8288 13.1517C13.7933 13.1647 13.7775 13.2047 13.7949 13.2377C14.0952 13.8009 14.4381 14.3373 14.8157 14.8459C14.8315 14.8674 14.8599 14.8767 14.8859 14.869C16.5201 14.3795 18.1772 13.6411 19.8879 12.4248C19.9028 12.4141 19.9123 12.3979 19.9139 12.3802C20.3309 8.2034 19.2154 4.5752 16.9568 1.35882C16.9513 1.34807 16.9419 1.34038 16.9308 1.33577ZM6.68335 10.1796C5.69792 10.1796 4.88594 9.30372 4.88594 8.228C4.88594 7.15228 5.68217 6.27637 6.68335 6.27637C7.69239 6.27637 8.49651 7.15997 8.48073 8.228C8.48073 9.30372 7.68451 10.1796 6.68335 10.1796ZM13.329 10.1796C12.3435 10.1796 11.5316 9.30372 11.5316 8.228C11.5316 7.15228 12.3278 6.27637 13.329 6.27637C14.338 6.27637 15.1421 7.15997 15.1264 8.228C15.1264 9.30372 14.338 10.1796 13.329 10.1796Z"></path></svg>