<svg width="22" height="22" viewBox="0 0 24 24" fill="none" xmlns="http://www.w3.org/2000/svg" aria-labelledby="svg-a11y-label-id"><title id="svg-a11y-label-id">RSS Logo</title><path d="M15.5991 8.38178C12.3465 5.12918 8.01875 3.33786 3.41309 3.33786V6.7266C7.11358 6.7266 10.5904 8.16539 13.203 10.778C15.8155 13.3906 17.2544 16.8674 17.2544 20.5679H20.6431C20.643 15.9622 18.8517 11.6344 15.5991 8.38178Z" fill="white"></path><path d="M3.37793 9.07234V12.4611C7.84799 12.4611 11.4847 16.0977 11.4847 20.5679H14.8735C14.8735 14.2292 9.71662 9.07234 3.37793 9.07234Z" fill="white"></path><path d="M5.78411 20.6621C7.12457 20.6621 8.21123 19.5754 8.21123 18.235C8.21123 16.8945 7.12457 15.8078 5.78411 15.8078C4.44365 15.8078 3.35699 16.8945 3.35699 18.235C3.35699 19.5754 4.44365 20.6621 5.78411 20.6621Z" fill="white"></path></svg>